# Wavefront OBJ file automatically generated by Tiled2Unity

# Vertices (Count = 240)
v -988 -418 0
v -1009 -418 0
v -1009 -397 0
v -988 -397 0
v -1007 -418 0
v -1028 -418 0
v -1028 -397 0
v -1007 -397 0
v -1026 -418 0
v -1047 -418 0
v -1047 -397 0
v -1026 -397 0
v -1045 -418 0
v -1066 -418 0
v -1066 -397 0
v -1045 -397 0
v -798 -456 0
v -819 -456 0
v -819 -435 0
v -798 -435 0
v -817 -456 0
v -838 -456 0
v -838 -435 0
v -817 -435 0
v -893 -456 0
v -914 -456 0
v -914 -435 0
v -893 -435 0
v -912 -456 0
v -933 -456 0
v -933 -435 0
v -912 -435 0
v -931 -456 0
v -952 -456 0
v -952 -435 0
v -931 -435 0
v -760 -475 0
v -781 -475 0
v -781 -454 0
v -760 -454 0
v -779 -475 0
v -800 -475 0
v -800 -454 0
v -779 -454 0
v -798 -475 0
v -819 -475 0
v -819 -454 0
v -798 -454 0
v -817 -475 0
v -838 -475 0
v -838 -454 0
v -817 -454 0
v -893 -475 0
v -914 -475 0
v -914 -454 0
v -893 -454 0
v -912 -475 0
v -933 -475 0
v -933 -454 0
v -912 -454 0
v -931 -475 0
v -952 -475 0
v -952 -454 0
v -931 -454 0
v -950 -475 0
v -971 -475 0
v -971 -454 0
v -950 -454 0
v -741 -494 0
v -762 -494 0
v -762 -473 0
v -741 -473 0
v -760 -494 0
v -781 -494 0
v -781 -473 0
v -760 -473 0
v -779 -494 0
v -800 -494 0
v -800 -473 0
v -779 -473 0
v -798 -494 0
v -819 -494 0
v -819 -473 0
v -798 -473 0
v -817 -494 0
v -838 -494 0
v -838 -473 0
v -817 -473 0
v -893 -494 0
v -914 -494 0
v -914 -473 0
v -893 -473 0
v -912 -494 0
v -933 -494 0
v -933 -473 0
v -912 -473 0
v -931 -494 0
v -952 -494 0
v -952 -473 0
v -931 -473 0
v -950 -494 0
v -971 -494 0
v -971 -473 0
v -950 -473 0
v -494 -513 0
v -515 -513 0
v -515 -492 0
v -494 -492 0
v -513 -513 0
v -534 -513 0
v -534 -492 0
v -513 -492 0
v -532 -513 0
v -553 -513 0
v -553 -492 0
v -532 -492 0
v -551 -513 0
v -572 -513 0
v -572 -492 0
v -551 -492 0
v -570 -513 0
v -591 -513 0
v -591 -492 0
v -570 -492 0
v -589 -513 0
v -610 -513 0
v -610 -492 0
v -589 -492 0
v -608 -513 0
v -629 -513 0
v -629 -492 0
v -608 -492 0
v -627 -513 0
v -648 -513 0
v -648 -492 0
v -627 -492 0
v -646 -513 0
v -667 -513 0
v -667 -492 0
v -646 -492 0
v -665 -513 0
v -686 -513 0
v -686 -492 0
v -665 -492 0
v -684 -513 0
v -705 -513 0
v -705 -492 0
v -684 -492 0
v -703 -513 0
v -724 -513 0
v -724 -492 0
v -703 -492 0
v -722 -513 0
v -743 -513 0
v -743 -492 0
v -722 -492 0
v -741 -513 0
v -762 -513 0
v -762 -492 0
v -741 -492 0
v -760 -513 0
v -781 -513 0
v -781 -492 0
v -760 -492 0
v -779 -513 0
v -800 -513 0
v -800 -492 0
v -779 -492 0
v -798 -513 0
v -819 -513 0
v -819 -492 0
v -798 -492 0
v -817 -513 0
v -838 -513 0
v -838 -492 0
v -817 -492 0
v -836 -513 0
v -857 -513 0
v -857 -492 0
v -836 -492 0
v -855 -513 0
v -876 -513 0
v -876 -492 0
v -855 -492 0
v -874 -513 0
v -895 -513 0
v -895 -492 0
v -874 -492 0
v -893 -513 0
v -914 -513 0
v -914 -492 0
v -893 -492 0
v -912 -513 0
v -933 -513 0
v -933 -492 0
v -912 -492 0
v -931 -513 0
v -952 -513 0
v -952 -492 0
v -931 -492 0
v -950 -513 0
v -971 -513 0
v -971 -492 0
v -950 -492 0
v -969 -513 0
v -990 -513 0
v -990 -492 0
v -969 -492 0
v -988 -513 0
v -1009 -513 0
v -1009 -492 0
v -988 -492 0
v -1007 -513 0
v -1028 -513 0
v -1028 -492 0
v -1007 -492 0
v -1026 -513 0
v -1047 -513 0
v -1047 -492 0
v -1026 -492 0
v -1045 -513 0
v -1066 -513 0
v -1066 -492 0
v -1045 -492 0
v -1064 -513 0
v -1085 -513 0
v -1085 -492 0
v -1064 -492 0
v -1083 -513 0
v -1104 -513 0
v -1104 -492 0
v -1083 -492 0
v -1102 -513 0
v -1123 -513 0
v -1123 -492 0
v -1102 -492 0
v -1121 -513 0
v -1142 -513 0
v -1142 -492 0
v -1121 -492 0

# Texture cooridinates (Count = 4)
vt 0.0332407 0.8367089
vt 0.06358011 0.8367089
vt 0.06358011 0.8670483
vt 0.0332407 0.8670483

# Normal
vn 0 0 -1

# Groups (Count = 1)

g mesh_0001
f 1/1/1 2/2/1 3/3/1 4/4/1
f 5/1/1 6/2/1 7/3/1 8/4/1
f 9/1/1 10/2/1 11/3/1 12/4/1
f 13/1/1 14/2/1 15/3/1 16/4/1
f 17/1/1 18/2/1 19/3/1 20/4/1
f 21/1/1 22/2/1 23/3/1 24/4/1
f 25/1/1 26/2/1 27/3/1 28/4/1
f 29/1/1 30/2/1 31/3/1 32/4/1
f 33/1/1 34/2/1 35/3/1 36/4/1
f 37/1/1 38/2/1 39/3/1 40/4/1
f 41/1/1 42/2/1 43/3/1 44/4/1
f 45/1/1 46/2/1 47/3/1 48/4/1
f 49/1/1 50/2/1 51/3/1 52/4/1
f 53/1/1 54/2/1 55/3/1 56/4/1
f 57/1/1 58/2/1 59/3/1 60/4/1
f 61/1/1 62/2/1 63/3/1 64/4/1
f 65/1/1 66/2/1 67/3/1 68/4/1
f 69/1/1 70/2/1 71/3/1 72/4/1
f 73/1/1 74/2/1 75/3/1 76/4/1
f 77/1/1 78/2/1 79/3/1 80/4/1
f 81/1/1 82/2/1 83/3/1 84/4/1
f 85/1/1 86/2/1 87/3/1 88/4/1
f 89/1/1 90/2/1 91/3/1 92/4/1
f 93/1/1 94/2/1 95/3/1 96/4/1
f 97/1/1 98/2/1 99/3/1 100/4/1
f 101/1/1 102/2/1 103/3/1 104/4/1
f 105/1/1 106/2/1 107/3/1 108/4/1
f 109/1/1 110/2/1 111/3/1 112/4/1
f 113/1/1 114/2/1 115/3/1 116/4/1
f 117/1/1 118/2/1 119/3/1 120/4/1
f 121/1/1 122/2/1 123/3/1 124/4/1
f 125/1/1 126/2/1 127/3/1 128/4/1
f 129/1/1 130/2/1 131/3/1 132/4/1
f 133/1/1 134/2/1 135/3/1 136/4/1
f 137/1/1 138/2/1 139/3/1 140/4/1
f 141/1/1 142/2/1 143/3/1 144/4/1
f 145/1/1 146/2/1 147/3/1 148/4/1
f 149/1/1 150/2/1 151/3/1 152/4/1
f 153/1/1 154/2/1 155/3/1 156/4/1
f 157/1/1 158/2/1 159/3/1 160/4/1
f 161/1/1 162/2/1 163/3/1 164/4/1
f 165/1/1 166/2/1 167/3/1 168/4/1
f 169/1/1 170/2/1 171/3/1 172/4/1
f 173/1/1 174/2/1 175/3/1 176/4/1
f 177/1/1 178/2/1 179/3/1 180/4/1
f 181/1/1 182/2/1 183/3/1 184/4/1
f 185/1/1 186/2/1 187/3/1 188/4/1
f 189/1/1 190/2/1 191/3/1 192/4/1
f 193/1/1 194/2/1 195/3/1 196/4/1
f 197/1/1 198/2/1 199/3/1 200/4/1
f 201/1/1 202/2/1 203/3/1 204/4/1
f 205/1/1 206/2/1 207/3/1 208/4/1
f 209/1/1 210/2/1 211/3/1 212/4/1
f 213/1/1 214/2/1 215/3/1 216/4/1
f 217/1/1 218/2/1 219/3/1 220/4/1
f 221/1/1 222/2/1 223/3/1 224/4/1
f 225/1/1 226/2/1 227/3/1 228/4/1
f 229/1/1 230/2/1 231/3/1 232/4/1
f 233/1/1 234/2/1 235/3/1 236/4/1
f 237/1/1 238/2/1 239/3/1 240/4/1

